# xmcd
#
# Track frame offsets:
#       150
#       14152
#       28955
#       46955
#       57695
#       64282
#       83542
#       96415
#       112854
#       126354
#       140032
#       148020
#
# Disc length: 2227 seconds
#
# Revision: 0
# Processed by: cddbd v1.4PL0 Copyright (c) Steve Scherf et al.
# Submitted via: CD-DA_X-Tractor v0.21
#
DISCID=b908b10c
DTITLE=Memphis Slim - Broken Soul Blues
DYEAR=1900
DGENRE=
TTITLE0=John Henry
TTITLE1=Rock Me
TTITLE2=Stackalee
TTITLE3=How Long
TTITLE4=All This Piano Boogie
TTITLE5=Bye Bye Baby
TTITLE6=Love My Baby
TTITLE7=When The Sun Goes Down
TTITLE8=Sunrise Blues
TTITLE9=Someday Baby
TTITLE10=Slim's Slow Blues
TTITLE11=Gee, Ain't It Hard To Find Somebody
EXTD=
EXTT0=
EXTT1=
EXTT2=
EXTT3=
EXTT4=
EXTT5=
EXTT6=
EXTT7=
EXTT8=
EXTT9=
EXTT10=
EXTT11=
PLAYORDER=
